# Vectary OBJ Export units=mm
mtllib Project Name.mtl
o 000_Crown
g Crown
usemtl Material 3_d278b3e3-0169-453a-9ac0-10020fd6919e
v 39.967 60.612 24.727
v 15.649 66.865 41.246
v 20.095 45.879 33.271
v 27.215 46.426 21.748
v -8.311 39.911 -35.899
v 19.895 56.043 -40.996
v 10.557 40.369 -29.856
v -4.457 33.870 -32.655
v -17.365 57.050 -29.706
v -22.591 46.275 -27.262
v -35.533 68.945 10.328
v -18.119 75.153 1.496
v -20.261 79.341 -18.119
v -38.473 61.577 -18.219
v -6.983 67.306 29.895
v 1.181 49.532 29.864
v 20.893 30.441 11.142
v 12.577 27.754 18.876
v -24.037 30.627 -9.332
v -1.045 24.794 -18.924
v 8.153 29.161 -23.157
v -39.813 45.268 -12.784
v -29.695 49.985 17.359
v -16.957 41.902 23.495
v 4.821 33.375 18.168
v 1.227 23.104 3.771
v 15.325 26.282 -7.647
v 3.043 23.082 -2.717
v -1.773 22.681 -6.266
v -40.971 54.004 5.046
v -8.619 26.785 5.632
v -5.685 24.514 2.804
v 3.043 25.714 -2.712
v 1.227 25.736 3.776
v -1.773 25.315 -6.261
v -5.685 27.148 2.809
v 31.101 73.422 -10.563
v 2.199 87.002 -9.706
v 24.633 79.280 11.707
v 17.387 75.521 -24.123
v 13.417 81.487 28.259
v 40.971 57.301 -12.340
v -7.661 73.466 -32.439
v -7.417 86.853 16.506
v 23.909 44.921 -5.191
vt 0.98775 0.59076
vt 0.69098 0.68850
vt 0.74523 0.36194
vt 0.83213 0.37009
vt 0.60143 0.26697
vt 0.25721 0.51765
vt 0.37116 0.27428
vt 0.55439 0.17315
vt 0.71192 0.53366
vt 0.77570 0.36620
vt 0.62391 0.06636
vt 0.51635 0.27888
vt 0.27767 0.25274
vt 0.27689 0.03048
vt 0.41478 0.69500
vt 0.51441 0.41863
vt 0.36524 0.12122
vt 0.23663 0.37009
vt 0.09647 0.36194
vt 0.27110 0.07967
vt 0.38575 0.79334
vt 0.06239 0.60143
vt 0.10199 0.55439
vt 0.26923 0.51275
vt 0.40050 0.10023
vt 0.51275 0.03247
vt 0.34340 0.98587
vt 0.16728 0.77570
vt 0.13761 0.42529
vt 0.29306 0.29981
vt 0.55883 0.16706
vt 0.65349 0.07967
vt 0.63476 0.24503
vt 0.72890 0.34651
vt 0.54529 0.48503
vt 0.40635 0.31298
vt 0.46638 0.46286
vt 0.21764 0.40050
vt 0.42323 0.52164
vt 0.70990 0.86239
vt 0.56003 1.00000
vt 0.39482 0.06419
vt 0.72014 0.44117
vt 0.56784 0.60518
vt 0.53350 0.56938
vt 0.46638 0.04727
vt 0.46638 0.00634
vt 0.54529 0.00690
vt 0.54529 0.04783
vt 0.47836 0.04096
vt 0.47836 0.00000
vt 0.53714 0.00634
vt 0.53714 0.04727
vt 0.56938 0.02880
vt 0.56938 0.06975
vt 0.48503 0.04783
vt 0.48503 0.00690
vt 0.53350 0.56938
vt 0.42323 0.52164
vt 0.46638 0.46286
vt 0.54529 0.48503
vt 0.57677 0.00000
vt 0.57677 0.04096
vt 0.46650 0.06975
vt 0.46650 0.02880
vt 0.36972 0.87955
vt 0.37981 0.52684
vt 0.64043 0.80062
vt 0.20474 0.71219
vt 0.84169 0.66374
vt 0.35957 0.88062
vt 0.20075 0.59076
vt 0.63028 0.78882
vt 0.79526 0.82103
vt 0.65150 0.53811
vt 0.10365 0.40651
vt 0.79925 0.98775
vt 0.69861 0.40948
vt 1.00000 0.51765
vt 0.28781 0.82103
vt 0.59349 0.78882
vt 1.00000 0.69098
vt 0.66374 0.91545
vt 0.40948 0.99851
vt 0.23663 0.37009
vt 0.00000 0.25721
vt 0.34850 -0.00000
vt 0.13588 0.37116
vt 0.96952 0.60441
vt 0.74726 0.88062
vt 0.86193 0.69500
vt 0.69861 0.99851
vt 0.51635 0.81612
vt 0.43576 0.20822
vt 0.76337 0.16787
vt 0.98587 0.35100
vt 0.86193 0.41478
vt 0.59365 0.05594
vt 0.56424 0.34583
vt 0.86412 0.27428
vt 0.34340 0.35100
vt 0.62391 0.71987
vt 0.27689 0.60441
vt 0.06636 0.71987
vt 0.78236 0.10023
vt 0.56003 0.48739
vt 0.78472 0.70694
vt 0.70990 0.42529
vn 0.58207 -0.36352 0.72735
vn 0.58207 -0.36352 0.72735
vn 0.58207 -0.36352 0.72735
vn 0.58207 -0.36352 0.72735
vn 0.58207 -0.36352 0.72735
vn 0.58207 -0.36352 0.72735
vn 0.26187 -0.57814 -0.77278
vn 0.26187 -0.57814 -0.77278
vn 0.26187 -0.57814 -0.77278
vn 0.26187 -0.57814 -0.77278
vn 0.26187 -0.57814 -0.77278
vn 0.26187 -0.57814 -0.77278
vn -0.33595 0.15786 -0.92856
vn -0.33595 0.15786 -0.92856
vn -0.33595 0.15786 -0.92856
vn -0.33595 0.15786 -0.92856
vn -0.33595 0.15786 -0.92856
vn -0.33595 0.15786 -0.92856
vn -0.55793 0.82988 0.00368
vn -0.55793 0.82988 0.00368
vn -0.55793 0.82988 0.00368
vn -0.55793 0.82988 0.00368
vn -0.55793 0.82988 0.00368
vn -0.55793 0.82988 0.00368
vn -0.34511 -0.29590 0.89070
vn -0.34511 -0.29590 0.89070
vn -0.34511 -0.29590 0.89070
vn -0.34511 -0.29590 0.89070
vn -0.34511 -0.29590 0.89070
vn -0.34511 -0.29590 0.89070
vn 0.67292 -0.59482 0.43974
vn 0.67292 -0.59482 0.43974
vn 0.67292 -0.59482 0.43974
vn 0.67292 -0.59482 0.43974
vn 0.67292 -0.59482 0.43974
vn 0.67292 -0.59482 0.43974
vn -0.44716 -0.75430 -0.48070
vn -0.44716 -0.75430 -0.48070
vn -0.44716 -0.75430 -0.48070
vn -0.44716 -0.75430 -0.48070
vn -0.44716 -0.75430 -0.48070
vn -0.44716 -0.75430 -0.48070
vn 0.26401 -0.67762 -0.68639
vn 0.26401 -0.67762 -0.68639
vn 0.26401 -0.67762 -0.68639
vn 0.26401 -0.67762 -0.68639
vn 0.26401 -0.67762 -0.68639
vn 0.26401 -0.67762 -0.68639
vn -0.53092 -0.61673 -0.58117
vn -0.53092 -0.61673 -0.58117
vn -0.53092 -0.61673 -0.58117
vn -0.53092 -0.61673 -0.58117
vn -0.53092 -0.61673 -0.58117
vn -0.53092 -0.61673 -0.58117
vn -0.37510 -0.08489 0.92309
vn -0.37510 -0.08489 0.92309
vn -0.37510 -0.08489 0.92309
vn -0.37510 -0.08489 0.92309
vn -0.37510 -0.08489 0.92309
vn -0.37510 -0.08489 0.92309
vn -0.31200 -0.55256 0.77287
vn -0.31200 -0.55256 0.77287
vn -0.31200 -0.55256 0.77287
vn -0.31200 -0.55256 0.77287
vn -0.31200 -0.55256 0.77287
vn -0.31200 -0.55256 0.77287
vn 0.31593 -0.94496 0.08506
vn 0.31593 -0.94496 0.08506
vn 0.31593 -0.94496 0.08506
vn 0.31593 -0.94496 0.08506
vn 0.31593 -0.94496 0.08506
vn 0.31593 -0.94496 0.08506
vn 0.31593 -0.94496 0.08506
vn 0.31593 -0.94496 0.08506
vn 0.31593 -0.94496 0.08506
vn 0.23195 -0.94937 -0.21188
vn 0.23195 -0.94937 -0.21188
vn 0.23195 -0.94937 -0.21188
vn 0.23195 -0.94937 -0.21188
vn 0.23195 -0.94937 -0.21188
vn 0.23195 -0.94937 -0.21188
vn 0.23195 -0.94937 -0.21188
vn 0.23195 -0.94937 -0.21188
vn 0.23195 -0.94937 -0.21188
vn -0.65837 -0.67804 0.32681
vn -0.65837 -0.67804 0.32681
vn -0.65837 -0.67804 0.32681
vn -0.65837 -0.67804 0.32681
vn -0.65837 -0.67804 0.32681
vn -0.65837 -0.67804 0.32681
vn -0.10404 -0.70369 0.70284
vn -0.10404 -0.70369 0.70284
vn -0.10404 -0.70369 0.70284
vn -0.10404 -0.70369 0.70284
vn -0.10404 -0.70369 0.70284
vn -0.10404 -0.70369 0.70284
vn -0.33594 -0.73307 0.59141
vn -0.33594 -0.73307 0.59141
vn -0.33594 -0.73307 0.59141
vn -0.33594 -0.73307 0.59141
vn -0.33594 -0.73307 0.59141
vn -0.33594 -0.73307 0.59141
vn -0.33594 -0.73307 0.59141
vn -0.33594 -0.73307 0.59141
vn -0.33594 -0.73307 0.59141
vn -0.96287 0.00055 -0.26996
vn -0.96287 0.00055 -0.26996
vn -0.96287 0.00055 -0.26996
vn -0.96287 0.00055 -0.26996
vn -0.96287 0.00055 -0.26996
vn -0.96287 0.00055 -0.26996
vn -0.69394 -0.70262 -0.15741
vn -0.69394 -0.70262 -0.15741
vn -0.69394 -0.70262 -0.15741
vn -0.69394 -0.70262 -0.15741
vn -0.69394 -0.70262 -0.15741
vn -0.69394 -0.70262 -0.15741
vn -0.59310 -0.00163 0.80513
vn -0.59310 -0.00163 0.80513
vn -0.59310 -0.00163 0.80513
vn -0.59310 -0.00163 0.80513
vn -0.59310 -0.00163 0.80513
vn -0.59310 -0.00163 0.80513
vn 0.13904 0.00201 -0.99028
vn 0.13904 0.00201 -0.99028
vn 0.13904 0.00201 -0.99028
vn 0.13904 0.00201 -0.99028
vn 0.13904 0.00201 -0.99028
vn 0.13904 0.00201 -0.99028
vn -0.11503 -0.99045 0.07601
vn -0.11503 -0.99045 0.07601
vn -0.11503 -0.99045 0.07601
vn -0.11503 -0.99045 0.07601
vn -0.11503 -0.99045 0.07601
vn -0.11503 -0.99045 0.07601
vn 0.91821 -0.00080 0.39609
vn 0.91821 -0.00080 0.39609
vn 0.91821 -0.00080 0.39609
vn 0.91821 -0.00080 0.39609
vn 0.91821 -0.00080 0.39609
vn 0.91821 -0.00080 0.39609
vn 0.41998 0.90020 -0.11517
vn 0.41998 0.90020 -0.11517
vn 0.41998 0.90020 -0.11517
vn 0.40273 0.87396 -0.27204
vn 0.40273 0.87396 -0.27204
vn 0.40273 0.87396 -0.27204
vn 0.27495 0.95971 0.05794
vn 0.27495 0.95971 0.05794
vn 0.27495 0.95971 0.05794
vn 0.75505 0.65395 0.04733
vn 0.75505 0.65395 0.04733
vn 0.75505 0.65395 0.04733
vn 0.65685 0.46710 -0.59192
vn 0.65685 0.46710 -0.59192
vn 0.65685 0.46710 -0.59192
vn 0.11193 0.83160 -0.54398
vn 0.11193 0.83160 -0.54398
vn 0.11193 0.83160 -0.54398
vn 0.61180 0.72412 0.31836
vn 0.61180 0.72412 0.31836
vn 0.61180 0.72412 0.31836
vn 0.20607 0.97518 0.08101
vn 0.20607 0.97518 0.08101
vn 0.20607 0.97518 0.08101
vn 0.85125 0.52421 -0.02394
vn 0.85125 0.52421 -0.02394
vn 0.85125 0.52421 -0.02394
vn 0.67026 0.53326 -0.51612
vn 0.67026 0.53326 -0.51612
vn 0.67026 0.53326 -0.51612
vn -0.12306 0.87540 -0.46747
vn -0.12306 0.87540 -0.46747
vn -0.12306 0.87540 -0.46747
vn 0.32109 -0.33731 -0.88494
vn 0.32109 -0.33731 -0.88494
vn 0.32109 -0.33731 -0.88494
vn 0.54927 0.60012 0.58151
vn 0.54927 0.60012 0.58151
vn 0.54927 0.60012 0.58151
vn -0.30702 0.53345 0.78815
vn -0.30702 0.53345 0.78815
vn -0.30702 0.53345 0.78815
vn -0.57512 0.79159 -0.20644
vn -0.57512 0.79159 -0.20644
vn -0.57512 0.79159 -0.20644
vn 0.73313 -0.67529 0.08065
vn 0.73313 -0.67529 0.08065
vn 0.73313 -0.67529 0.08065
vn 0.61427 -0.66644 -0.42254
vn 0.61427 -0.66644 -0.42254
vn 0.61427 -0.66644 -0.42254
vn -0.21104 0.62463 -0.75186
vn -0.21104 0.62463 -0.75186
vn -0.21104 0.62463 -0.75186
vn -0.51497 0.53233 -0.67188
vn -0.51497 0.53233 -0.67188
vn -0.51497 0.53233 -0.67188
vn -0.39098 0.89048 0.23279
vn -0.39098 0.89048 0.23279
vn -0.39098 0.89048 0.23279
vn -0.45395 0.12178 -0.88266
vn -0.45395 0.12178 -0.88266
vn -0.45395 0.12178 -0.88266
vn -0.35200 0.59053 0.72620
vn -0.35200 0.59053 0.72620
vn -0.35200 0.59053 0.72620
vn -0.87089 0.26413 0.41448
vn -0.87089 0.26413 0.41448
vn -0.87089 0.26413 0.41448
vn 0.58012 -0.81412 -0.02566
vn 0.58012 -0.81412 -0.02566
vn 0.58012 -0.81412 -0.02566
vn 0.54191 -0.82858 -0.14066
vn 0.54191 -0.82858 -0.14066
vn 0.54191 -0.82858 -0.14066
vn -0.50307 -0.23535 -0.83159
vn -0.50307 -0.23535 -0.83159
vn -0.50307 -0.23535 -0.83159
vn -0.16801 0.93140 0.32291
vn -0.16801 0.93140 0.32291
vn -0.16801 0.93140 0.32291
vn 0.90915 -0.40689 -0.08884
vn 0.90915 -0.40689 -0.08884
vn 0.90915 -0.40689 -0.08884
vn 0.85175 -0.34009 -0.39857
vn 0.85175 -0.34009 -0.39857
vn 0.85175 -0.34009 -0.39857
vn -0.64200 0.14053 -0.75372
vn -0.64200 0.14053 -0.75372
vn -0.64200 0.14053 -0.75372
vn -0.99162 0.10581 0.07419
vn -0.99162 0.10581 0.07419
vn -0.99162 0.10581 0.07419
vn 0.94747 -0.22064 -0.23156
vn 0.94747 -0.22064 -0.23156
vn 0.94747 -0.22064 -0.23156
vn -0.55492 0.13332 0.82115
vn -0.55492 0.13332 0.82115
vn -0.55492 0.13332 0.82115
vn 0.78502 -0.43311 -0.44289
vn 0.78502 -0.43311 -0.44289
vn 0.78502 -0.43311 -0.44289
vn -0.24488 -0.96955 0.00303
vn -0.24488 -0.96955 0.00303
vn -0.24488 -0.96955 0.00303
vn -0.87523 0.40963 -0.25724
vn -0.87523 0.40963 -0.25724
vn -0.87523 0.40963 -0.25724
vn -0.61306 -0.72073 0.32357
vn -0.61306 -0.72073 0.32357
vn -0.61306 -0.72073 0.32357
vn -0.73283 0.02661 0.67989
vn -0.73283 0.02661 0.67989
vn -0.73283 0.02661 0.67989
vn -0.56807 -0.71890 0.40059
vn -0.56807 -0.71890 0.40059
vn -0.56807 -0.71890 0.40059
f 1/1/1 2/2/2 3/3/3 
f 1/1/4 3/3/5 4/4/6 
f 5/5/7 6/6/8 7/7/9 
f 5/5/10 7/7/11 8/8/12 
f 9/9/13 6/6/14 5/5/15 
f 9/9/16 5/5/17 10/10/18 
f 11/11/19 12/12/20 13/13/21 
f 11/11/22 13/13/23 14/14/24 
f 2/2/25 15/15/26 16/16/27 
f 2/2/28 16/16/29 3/3/30 
f 17/17/31 4/18/32 3/19/33 
f 17/17/34 3/19/35 18/20/36 
f 19/21/37 5/22/38 8/23/39 
f 19/21/40 8/23/41 20/24/42 
f 7/7/43 21/25/44 20/26/45 
f 7/7/46 20/26/47 8/8/48 
f 19/21/49 22/27/50 10/28/51 
f 19/21/52 10/28/53 5/22/54 
f 15/15/55 23/29/56 24/30/57 
f 15/15/58 24/30/59 16/16/60 
f 3/3/61 16/16/62 25/31/63 
f 3/3/64 25/31/65 18/32/66 
f 17/33/67 18/34/68 26/35/69 
f 27/36/70 17/33/71 26/35/72 
f 27/36/73 26/35/74 28/37/75 
f 21/38/76 27/36/77 20/24/78 
f 20/24/79 27/36/80 28/37/81 
f 20/24/82 28/37/83 29/39/84 
f 23/40/85 30/41/86 22/27/87 
f 23/40/88 22/27/89 19/21/90 
f 25/31/91 16/16/92 24/30/93 
f 25/31/94 24/30/95 31/42/96 
f 25/43/97 31/44/98 26/35/99 
f 25/43/100 26/35/101 18/34/102 
f 31/44/103 32/45/104 26/35/105 
f 33/46/106 28/47/107 26/48/108 
f 33/46/109 26/48/110 34/49/111 
f 31/44/112 20/24/113 29/39/114 
f 31/44/115 29/39/116 32/45/117 
f 35/50/118 29/51/119 28/52/120 
f 35/50/121 28/52/122 33/53/123 
f 32/54/124 36/55/125 34/56/126 
f 32/54/127 34/56/128 26/57/129 
f 36/58/130 35/59/131 33/60/132 
f 36/58/133 33/60/134 34/61/135 
f 29/62/136 35/63/137 36/64/138 
f 29/62/139 36/64/140 32/65/141 
f 37/66/142 38/67/143 39/68/144 
f 37/66/145 40/69/146 38/67/147 
f 41/70/148 39/68/149 38/67/150 
f 39/71/151 1/72/152 37/73/153 
f 40/74/154 37/73/155 42/75/156 
f 43/76/157 38/67/158 40/69/159 
f 1/77/160 39/68/161 41/70/162 
f 44/78/163 41/70/164 38/67/165 
f 42/75/166 37/73/167 1/72/168 
f 42/75/169 6/79/170 40/74/171 
f 38/67/172 43/76/173 13/13/174 
f 40/80/175 9/9/176 43/81/177 
f 1/77/178 41/70/179 2/82/180 
f 41/83/181 44/84/182 15/15/183 
f 12/12/184 44/78/185 38/67/186 
f 42/75/187 1/72/188 4/85/189 
f 6/86/190 42/87/191 7/88/192 
f 9/9/193 40/80/194 6/6/195 
f 14/89/196 13/90/197 43/81/198 
f 38/67/199 13/13/200 12/12/201 
f 9/9/202 14/89/203 43/81/204 
f 15/15/205 2/2/206 41/83/207 
f 15/91/208 44/92/209 12/93/210 
f 45/94/211 42/87/212 4/95/213 
f 45/94/214 7/88/215 42/87/216 
f 9/9/217 22/96/218 14/89/219 
f 12/12/220 11/11/221 15/97/222 
f 27/98/223 45/99/224 4/18/225 
f 7/100/226 45/99/227 27/98/228 
f 9/9/229 10/10/230 22/96/231 
f 22/101/232 11/102/233 14/103/234 
f 27/98/235 4/18/236 17/17/237 
f 23/29/238 15/15/239 11/104/240 
f 21/105/241 7/100/242 27/98/243 
f 31/44/244 19/21/245 20/24/246 
f 22/101/247 30/106/248 11/102/249 
f 31/44/250 24/107/251 23/40/252 
f 11/102/253 30/106/254 23/108/255 
f 23/40/256 19/21/257 31/44/258 
o 001_Trunk
g Trunk
usemtl Material 4_113c9cb2-8aaa-4192-a9b7-7c2a46d15be3
v -6.905 -0.008 3.886
v 1.939 -0.010 5.128
v 1.227 12.658 3.750
v -5.685 14.068 2.783
v -1.899 0.016 -7.714
v -1.773 12.235 -6.287
v 4.265 0.006 -3.176
v 3.043 12.634 -2.738
v 1.227 23.104 3.771
v -5.685 24.514 2.804
v -1.773 22.681 -6.266
v 3.043 23.082 -2.717
v 1.227 25.736 3.776
v -5.685 27.148 2.809
v -1.773 25.315 -6.261
v 3.043 25.714 -2.712
vt 0.00000 0.00000
vt 0.79176 0.00000
vt 0.72802 0.46645
vt 0.10922 0.51830
vt 0.00000 0.00000
vt 0.90329 0.00000
vt 0.81514 0.51830
vt 0.10917 0.45010
vt 0.35337 -0.00000
vt 1.00000 0.20824
vt 0.90329 1.00000
vt 0.00000 0.55184
vt 0.00000 0.00000
vt 0.64663 0.00000
vt 0.61455 0.46505
vt 0.10933 0.46645
vt 0.72802 0.85115
vt 0.10922 0.90300
vt -0.00000 0.00000
vt 0.55184 0.00000
vt 0.54056 0.45010
vt 0.10940 0.46505
vt 0.81514 0.90300
vt 0.10917 0.83479
vt 0.61455 0.84982
vt 0.10933 0.85115
vt 0.72802 0.94807
vt 0.10922 1.00000
vt 0.54056 0.83479
vt 0.10940 0.84982
vt 0.81514 1.00000
vt 0.10917 0.93180
vt 0.61455 0.94675
vt 0.10933 0.94807
vt 0.81514 0.10922
vt 0.89067 0.72802
vt 0.38545 0.89060
vt 0.10917 0.45944
vt 0.54056 0.93180
vt 0.10940 0.94675
vn -0.12998 0.09399 0.98705
vn -0.12998 0.09399 0.98705
vn -0.12998 0.09399 0.98705
vn -0.12998 0.09399 0.98705
vn -0.12998 0.09399 0.98705
vn -0.12998 0.09399 0.98705
vn -0.91508 0.05182 -0.39993
vn -0.91508 0.05182 -0.39993
vn -0.91508 0.05182 -0.39993
vn -0.91508 0.05182 -0.39993
vn -0.91508 0.05182 -0.39993
vn -0.91508 0.05182 -0.39993
vn 0.00000 -1.00000 -0.00203
vn 0.00000 -1.00000 -0.00203
vn 0.00000 -1.00000 -0.00203
vn 0.00000 -1.00000 -0.00203
vn 0.00000 -1.00000 -0.00203
vn 0.00000 -1.00000 -0.00203
vn 0.95977 0.08344 0.26811
vn 0.95977 0.08344 0.26811
vn 0.95977 0.08344 0.26811
vn 0.95977 0.08344 0.26811
vn 0.95977 0.08344 0.26811
vn 0.95977 0.08344 0.26811
vn -0.13904 -0.00201 0.99028
vn -0.13904 -0.00201 0.99028
vn -0.13904 -0.00201 0.99028
vn -0.13904 -0.00201 0.99028
vn -0.13904 -0.00201 0.99028
vn -0.13904 -0.00201 0.99028
vn 0.58883 0.08661 -0.80360
vn 0.58883 0.08661 -0.80360
vn 0.58883 0.08661 -0.80360
vn 0.58883 0.08661 -0.80360
vn 0.58883 0.08661 -0.80360
vn 0.58883 0.08661 -0.80360
vn -0.91821 0.00080 -0.39609
vn -0.91821 0.00080 -0.39609
vn -0.91821 0.00080 -0.39609
vn -0.91821 0.00080 -0.39609
vn -0.91821 0.00080 -0.39609
vn -0.91821 0.00080 -0.39609
vn 0.96287 -0.00055 0.26996
vn 0.96287 -0.00055 0.26996
vn 0.96287 -0.00055 0.26996
vn 0.96287 -0.00055 0.26996
vn 0.96287 -0.00055 0.26996
vn 0.96287 -0.00055 0.26996
vn -0.13904 -0.00201 0.99028
vn -0.13904 -0.00201 0.99028
vn -0.13904 -0.00201 0.99028
vn -0.13904 -0.00201 0.99028
vn -0.13904 -0.00201 0.99028
vn -0.13904 -0.00201 0.99028
vn 0.59310 0.00163 -0.80513
vn 0.59310 0.00163 -0.80513
vn 0.59310 0.00163 -0.80513
vn 0.59310 0.00163 -0.80513
vn 0.59310 0.00163 -0.80513
vn 0.59310 0.00163 -0.80513
vn -0.91821 0.00080 -0.39609
vn -0.91821 0.00080 -0.39609
vn -0.91821 0.00080 -0.39609
vn -0.91821 0.00080 -0.39609
vn -0.91821 0.00080 -0.39609
vn -0.91821 0.00080 -0.39609
vn 0.96287 -0.00055 0.26996
vn 0.96287 -0.00055 0.26996
vn 0.96287 -0.00055 0.26996
vn 0.96287 -0.00055 0.26996
vn 0.96287 -0.00055 0.26996
vn 0.96287 -0.00055 0.26996
vn 0.11503 0.99045 -0.07601
vn 0.11503 0.99045 -0.07601
vn 0.11503 0.99045 -0.07601
vn 0.11503 0.99045 -0.07601
vn 0.11503 0.99045 -0.07601
vn 0.11503 0.99045 -0.07601
vn 0.59310 0.00163 -0.80513
vn 0.59310 0.00163 -0.80513
vn 0.59310 0.00163 -0.80513
vn 0.59310 0.00163 -0.80513
vn 0.59310 0.00163 -0.80513
vn 0.59310 0.00163 -0.80513
f 46/109/259 47/110/260 48/111/261 
f 46/109/262 48/111/263 49/112/264 
f 50/113/265 46/114/266 49/115/267 
f 50/113/268 49/115/269 51/116/270 
f 52/117/271 47/118/272 46/119/273 
f 52/117/274 46/119/275 50/120/276 
f 47/121/277 52/122/278 53/123/279 
f 47/121/280 53/123/281 48/124/282 
f 49/112/283 48/111/284 54/125/285 
f 49/112/286 54/125/287 55/126/288 
f 52/127/289 50/128/290 51/129/291 
f 52/127/292 51/129/293 53/130/294 
f 51/116/295 49/115/296 55/131/297 
f 51/116/298 55/131/299 56/132/300 
f 48/124/301 53/123/302 57/133/303 
f 48/124/304 57/133/305 54/134/306 
f 55/126/307 54/125/308 58/135/309 
f 55/126/310 58/135/311 59/136/312 
f 53/130/313 51/129/314 56/137/315 
f 53/130/316 56/137/317 57/138/318 
f 55/131/319 59/139/320 60/140/321 
f 55/131/322 60/140/323 56/132/324 
f 54/134/325 57/133/326 61/141/327 
f 54/134/328 61/141/329 58/142/330 
f 59/143/331 58/144/332 61/145/333 
f 59/143/334 61/145/335 60/146/336 
f 57/138/337 56/137/338 60/147/339 
f 57/138/340 60/147/341 61/148/342 
