ply
format ascii 1.0
element vertex 127
property float x
property float y
property float z
element face 242
property list uchar int vertex_index
end_header
-1.328 45.078 -8.255
1.711 22.549 -7.44
-1.43 22.65 -11.854
-4.581 45.203 -12.528
-1.906 56.085 -9.955
-0.444 53.491 -7.206
-3.337 45.168 -4.892
-0.582 22.638 -3.604
-2.847 0 -14.694
2.568 0 -7.351
-6.844 41.978 -10.217
-4.565 22.674 -9.54
-0.627 56.168 -4.952
-2.045 56.074 -3.6
-6.766 48.43 -10.164
-5.632 56.168 -9.121
13.82 61.442 -9.443
13.937 60.043 -8.246
-1.329 0 -0.086
-7.522 45.203 -7.443
-5.35 22.674 -6.532
-7.134 0 -10.138
-12.372 47.446 -13.49
-11.667 49.319 -14.771
14.05 61.442 -7.088
0.638 58.846 -7.312
-6.684 71.14 -6.785
-7.944 71.14 -4.435
-6.316 56.168 -6.5
-11.925 50.554 -13.226
-9.78 71.14 -7.678
-8.401 71.14 -9.128
13.937 62.841 -8.246
-8.185 0 -6.075
-12.584 48.982 -12.001
-10.118 71.14 -6.385
-3.313 0 -7.636
-12.372 47.446 -13.49
-11.667 49.319 -14.771
-11.925 50.554 -13.226
-12.584 48.982 -12.001
-12.898 44.66 -13.377
-10.104 51.076 -19.156
-13.19 52.819 -7.487
-8.072 94.812 -25.029
-31.638 81.47 -25.796
-16.25 105.496 -28.6
-16.25 75.233 -28.6
-39.085 94.189 -25.07
-5.603 113.65 -18.654
-0.611 81.47 -28.819
-24.778 67.079 -16.786
-24.778 108.581 -16.786
-53.513 90.365 -6.558
15.111 105.67 -14.691
-5.603 67.079 -18.654
11.125 90.365 -21.091
-34.852 70.927 -4.983
-35.849 106.28 -0.046
-13.678 119.147 -2.207
-1.379 111.842 -3.406
8.306 77.324 -17.248
-13.678 61.582 -2.207
-48.811 90.365 17.683
-44.821 75.973 10.507
16.361 90.365 -7.747
16.98 105.67 4.484
7.007 74.049 -15.196
10.721 81.895 -17.09
2.633 65.881 -3.797
-21.754 67.079 14.241
-21.754 113.65 14.241
-26.745 99.259 24.406
-2.579 113.65 12.372
14.276 89.335 -12.453
17.296 90.826 -5.005
5.441 71.858 -12.722
11.553 80.033 -22.375
5.006 69.065 -6.256
-2.579 67.079 12.372
-18.926 78.352 24.296
16.521 90.457 -15.848
24.561 94.438 -5.288
16.167 89.786 0.577
4.281 99.259 21.382
11.553 67.149 -22.375
5.375 68.726 -1.335
6.781 72.99 8.117
-11.106 105.496 24.186
-10.654 90.365 28.819
14.304 90.365 11.533
9.225 59.512 -7.299
28.622 76.812 -21.82
22.698 84.551 -24.405
7.057 63.167 3.428
4.281 81.47 21.382
30.41 90.457 -17.202
18.712 90.457 6.625
13.098 82.41 8.09
16.521 56.725 -15.848
22.698 62.631 -24.405
10.172 77.461 9.385
33.035 92.934 -0.443
24.561 52.743 -5.288
18.712 56.725 6.625
34.026 67.149 -24.564
20.76 64.89 13.908
15.096 80.033 13.987
40.977 87.007 -13.899
26.424 84.551 13.827
36.238 59.946 -15.603
53.513 73.59 -11.092
49.435 80.302 8.264
36.376 55.857 -6.44
32.6 56.725 5.271
27.069 73.59 20.448
43.418 63.167 -0.116
37.569 67.149 11.797
-26.978 52.378 -21.573
-14.455 58.718 -21.717
-16.025 46.894 -23.33
-24.024 60.102 -17.662
-25.045 43.504 -15.422
-29.683 52.378 -10.943
-16.016 58.029 -12.666
-20.402 57.862 -6.13
-20.402 46.894 -6.13
3 0 1 2
3 0 2 3
3 0 3 4
3 0 4 5
3 1 0 6
3 1 6 7
3 8 2 1
3 8 1 9
3 10 3 2
3 10 2 11
3 12 13 5
3 13 6 5
3 5 6 0
3 3 14 15
3 3 15 4
3 4 16 17
3 4 17 5
3 7 18 9
3 7 9 1
3 7 6 19
3 7 19 20
3 2 8 21
3 2 21 11
3 20 19 10
3 20 10 11
3 10 22 23
3 10 23 3
3 5 17 24
3 5 24 12
3 25 26 27
3 13 25 27
3 25 13 12
3 28 19 6
3 28 6 13
3 3 23 29
3 3 29 14
3 15 14 19
3 15 19 28
3 15 30 31
3 15 31 4
3 25 32 16
3 25 16 4
3 17 16 32
3 17 32 24
3 20 33 18
3 20 18 7
3 11 21 33
3 11 33 20
3 19 34 22
3 19 22 10
3 23 22 34
3 23 34 29
3 12 24 32
3 12 32 25
3 4 31 26
3 4 26 25
3 31 30 26
3 30 35 26
3 26 35 27
3 13 27 35
3 13 35 28
3 14 29 34
3 14 34 19
3 28 35 30
3 28 30 15
3 8 9 36
3 9 18 36
3 21 8 36
3 18 33 36
3 33 21 36
3 37 38 39
3 37 39 40
3 41 42 38
3 41 38 37
3 42 43 39
3 42 39 38
3 43 41 37
3 43 37 40
3 44 45 46
3 45 44 47
3 48 46 45
3 44 46 49
3 50 47 44
3 45 47 51
3 46 48 52
3 53 48 45
3 46 52 49
3 54 44 49
3 47 50 55
3 56 50 44
3 47 55 51
3 57 45 51
3 52 48 58
3 48 53 58
3 53 45 57
3 49 52 59
3 56 44 54
3 54 49 60
3 61 55 50
3 50 56 61
3 51 55 62
3 51 62 57
3 52 58 59
3 63 58 53
3 64 53 57
3 49 59 60
3 65 56 54
3 66 54 60
3 67 55 61
3 61 56 68
3 55 69 62
3 62 70 57
3 58 71 59
3 58 63 72
3 63 53 64
3 70 64 57
3 59 73 60
3 56 65 74
3 65 54 75
3 75 54 66
3 73 66 60
3 67 76 55
3 61 77 67
3 68 56 74
3 68 77 61
3 55 78 69
3 69 79 62
3 62 79 70
3 71 58 72
3 59 71 73
3 80 72 63
3 80 63 64
3 70 80 64
3 81 74 65
3 65 75 82
3 66 83 75
3 73 84 66
3 67 85 76
3 76 78 55
3 67 77 85
3 81 68 74
3 81 77 68
3 86 69 78
3 87 79 69
3 79 80 70
3 71 72 88
3 71 88 73
3 80 89 72
3 82 81 65
3 82 75 83
3 66 90 83
3 88 84 73
3 84 90 66
3 76 85 91
3 76 91 78
3 85 77 92
3 93 77 81
3 87 69 86
3 86 78 94
3 95 79 87
3 79 95 80
3 89 88 72
3 89 80 95
3 96 81 82
3 97 82 83
3 90 98 83
3 88 89 84
3 84 95 90
3 91 85 99
3 78 91 94
3 77 93 92
3 85 92 100
3 93 81 96
3 86 94 87
3 95 87 101
3 84 89 95
3 96 82 102
3 82 97 102
3 83 98 97
3 98 90 101
3 101 90 95
3 85 100 99
3 99 103 91
3 104 94 91
3 92 93 96
3 105 100 92
3 87 94 106
3 87 107 101
3 108 96 102
3 97 109 102
3 97 98 107
3 107 98 101
3 100 110 99
3 99 110 103
3 103 104 91
3 104 106 94
3 96 108 92
3 100 105 110
3 111 105 92
3 87 106 107
3 112 108 102
3 97 107 109
3 109 112 102
3 110 113 103
3 103 114 104
3 114 106 104
3 111 92 108
3 105 111 110
3 106 115 107
3 112 111 108
3 115 109 107
3 109 115 112
3 116 113 110
3 113 114 103
3 114 117 106
3 111 116 110
3 115 106 117
3 112 117 111
3 112 115 117
3 113 116 114
3 114 116 117
3 116 111 117
3 118 119 120
3 118 121 119
3 120 119 42
3 118 120 122
3 118 123 121
3 119 121 124
3 42 119 43
3 120 42 41
3 123 118 122
3 121 123 125
3 121 125 124
3 124 43 119
3 126 123 122
3 126 125 123
3 125 43 124
3 126 41 43
3 126 43 125
3 126 122 41
3 120 41 122
3 39 43 40
